HIERARCHY
ROOT Hips
{
   OFFSET 0.00000 0.00000 0.00000
   CHANNELS 6 Xposition Yposition Zposition Zrotation Xrotation Yrotation
   JOINT RightUpLeg
   {
      OFFSET -8.94580 -8.66707  0.10165
      CHANNELS 3 Zrotation Xrotation Yrotation
      JOINT RightLeg
      {
         OFFSET  0.00000 -44.42270  1.37270
         CHANNELS 3 Zrotation Xrotation Yrotation
         JOINT RightFoot
         {
            OFFSET  0.25355 -42.09240 -1.46059
            CHANNELS 3 Zrotation Xrotation Yrotation
            JOINT RightToes
            {
               OFFSET  0.04000 -4.41509  8.49910
               CHANNELS 3 Zrotation Xrotation Yrotation
               End Site
               {
                  OFFSET -0.08000 -0.13745  9.77979
               }
            }
         }
      }
   }
   JOINT Spine
   {
      OFFSET  0.00000 11.89050 -0.00000
      CHANNELS 3 Zrotation Xrotation Yrotation
      JOINT Spine1
      {
         OFFSET  0.00000 25.65740  0.12766
         CHANNELS 3 Zrotation Xrotation Yrotation
         JOINT head
         {
            OFFSET  0.00000  8.73416  0.01134
            CHANNELS 3 Zrotation Xrotation Yrotation
            End Site
            {
               OFFSET -0.29000 12.77420  2.51395
            }
         }
         JOINT LeftShoulder1
         {
            OFFSET  8.99000 -0.36225 -0.22000
            CHANNELS 3 Zrotation Xrotation Yrotation
            JOINT LeftArm
            {
               OFFSET 10.28270 -0.00338  0.32212
               CHANNELS 3 Zrotation Xrotation Yrotation
               JOINT LeftForeArm
               {
                  OFFSET 32.76690  0.09914 -1.42434
                  CHANNELS 3 Zrotation Xrotation Yrotation
                  JOINT LeftHand
                  {
                     OFFSET 27.56430  0.08536  1.02216
                     CHANNELS 3 Zrotation Xrotation Yrotation
                     End Site
                     {
                        OFFSET 16.74430 -0.60000  1.50291
                     }
                  }
               }
            }
         }
         JOINT RightShoulder
         {
            OFFSET -8.99000 -0.36225 -0.22000
            CHANNELS 3 Zrotation Xrotation Yrotation
            JOINT RightArm
            {
               OFFSET -10.28270 -0.00338  0.32212
               CHANNELS 3 Zrotation Xrotation Yrotation
               JOINT RightForeArm
               {
                  OFFSET -32.89710  0.09914 -1.42434
                  CHANNELS 3 Zrotation Xrotation Yrotation
                  JOINT RightHand
                  {
                     OFFSET -27.49210  0.08536  1.02216
                     CHANNELS 3 Zrotation Xrotation Yrotation
                     End Site
                     {
                        OFFSET -16.63120 -0.60000  1.50291
                     }
                  }
               }
            }
         }
      }
   }
   JOINT LeftUpLeg
   {
      OFFSET  8.94580 -8.66707  0.10165
      CHANNELS 3 Zrotation Xrotation Yrotation
      JOINT LeftLeg
      {
         OFFSET  0.00000 -44.42270  1.37270
         CHANNELS 3 Zrotation Xrotation Yrotation
         JOINT LeftFoot
         {
            OFFSET -0.25355 -42.09240 -1.46059
            CHANNELS 3 Zrotation Xrotation Yrotation
            JOINT LeftToes
            {
               OFFSET -0.04000 -4.41509  8.49910
               CHANNELS 3 Zrotation Xrotation Yrotation
               End Site
               {
                  OFFSET  0.08000 -0.04745  9.77979
               }
            }
         }
      }
   }
}
MOTION
Frames: 12
Frame Time: 0.033333
20.076902 86.101903 34.562001 15.621399 -2.589260 108.015999 -81.394401 -59.120902 -55.010398 22.051300 58.190603 -55.224098 14.560700 -14.038800 0.614412 0.092410 0.001475 1.325290 7.583089 29.242799 -15.316499 6.191930 0.978409 -20.218000 -8.549091 3.455480 -12.885000 -0.000000 0.000000 -0.000000 -74.210996 -59.146897 -126.139005 2.466080 -41.390800 -24.996901 -14.544799 10.967400 -3.803580 12.812801 0.411593 -0.054645 63.656298 -8.018481 10.618800 -57.685899 40.816002 87.010203 -29.256600 13.673600 -19.394100 66.077299 -43.860500 34.082699 22.781401 80.171306 -13.699600 -18.669501 5.900300 2.170080 -0.000000 -0.000006 0.000000
19.738000 85.768603 35.165402 15.782100 -0.932218 106.333997 -75.838698 -57.749502 -50.264998 20.995899 56.392900 -54.346299 14.251900 -13.617300 0.545442 0.092411 0.001460 1.325290 4.861190 29.826299 -15.214400 5.902950 1.778240 -19.558201 -8.695880 2.989710 -11.041001 -0.000000 0.000000 -0.000000 -72.564299 -60.433002 -123.440998 0.126067 -42.575902 -26.989201 -12.682901 10.853200 -3.955100 12.430700 0.369879 -0.288221 66.142500 -7.605550 11.899101 -60.065401 41.513801 89.013901 -28.600401 13.784300 -20.209700 64.250299 -42.954899 32.979698 22.915701 80.034401 -13.815900 -17.607599 7.495320 2.276810 -0.000000 -0.000006 0.000000
19.477100 85.456103 35.596401 16.144301 1.024020 104.990997 -71.127295 -56.010799 -45.727700 21.240000 55.582601 -54.546700 13.617200 -12.938000 0.432933 0.092411 0.001444 1.325290 2.407560 30.023401 -15.579100 5.408210 2.412300 -18.591100 -8.620660 2.709390 -9.572899 -0.000000 0.000000 -0.000000 -69.994795 -61.200599 -118.974997 -2.888860 -44.088502 -29.454798 -10.608900 10.750200 -4.424060 12.313500 0.344327 -0.445852 67.625601 -7.695759 12.459699 -62.535197 42.014597 91.920802 -27.702699 13.985500 -21.596800 61.777401 -42.457299 31.142101 23.076001 80.234703 -14.074600 -16.432199 9.447710 2.386090 -0.000000 -0.000006 0.000000
19.322799 85.010003 36.000301 16.728100 3.262520 103.981004 -68.063402 -54.155300 -42.266799 22.565400 56.127301 -55.583301 12.730300 -12.196800 0.311411 0.092411 0.001428 1.325290 0.347259 29.816501 -16.171600 4.762540 2.731560 -17.333000 -8.460820 2.380530 -8.416300 -0.000000 0.000000 -0.000000 -63.724996 -62.422998 -109.870000 -8.909761 -47.292302 -33.373797 -7.395460 10.599500 -5.735860 12.057400 0.292483 -0.771347 68.231595 -8.590990 11.964599 -65.422994 41.926799 96.814694 -26.214599 14.331101 -24.156299 58.993498 -42.265200 28.830799 22.590799 80.784103 -14.192500 -14.704701 11.736399 2.403730 -0.000000 -0.000006 0.000000
19.314501 84.388903 36.388802 17.522200 5.529850 103.085996 -66.321000 -52.552801 -39.854400 24.862401 57.916097 -57.195301 11.593601 -11.887000 0.235256 0.092411 0.001412 1.325290 -1.169640 29.273702 -16.796499 4.080990 2.763850 -15.968600 -7.986480 2.139220 -7.558390 -0.000000 0.000000 -0.000000 -57.942503 -61.944898 -100.053003 -16.013399 -50.074002 -39.334800 -4.210930 10.349600 -6.351100 11.768300 0.212290 -1.298130 67.871200 -10.332600 10.663100 -68.724503 41.002899 103.657997 -23.901400 14.659000 -27.738800 56.382300 -42.234601 26.695900 24.444499 81.619695 -17.186800 -12.958500 14.219400 2.370520 -0.000000 -0.000006 0.000000
19.386100 83.599700 36.783797 18.627200 7.875790 102.149003 -65.592595 -51.210603 -38.044201 28.239299 60.323302 -59.787603 10.636800 -11.505900 0.165535 0.092411 0.001395 1.325290 -2.170690 28.414000 -17.373399 3.412670 2.532730 -14.397299 -7.703380 2.045970 -6.826780 -0.000000 0.000000 -0.000000 -52.836701 -60.488299 -90.159105 -24.683600 -52.691897 -46.628899 -1.088330 10.070100 -6.828390 11.166300 0.115063 -1.964780 66.747102 -13.220700 8.755050 -72.350001 39.382499 112.474002 -20.717101 14.840900 -32.439300 53.806400 -42.093302 24.540800 26.842000 82.452398 -20.945699 -11.269400 17.034202 2.305800 -0.000000 -0.000006 0.000000
19.550100 82.684802 37.247898 19.909800 10.218701 101.310994 -65.752196 -50.123200 -36.691899 32.717200 62.851599 -63.591500 9.782920 -11.088800 0.102716 0.092411 0.001379 1.325290 -2.615670 27.163401 -17.958900 2.787200 2.069450 -12.584200 -7.422110 2.178850 -6.151680 -0.000000 0.000000 -0.000000 -49.894600 -58.379601 -81.935202 -33.954499 -54.357299 -54.354499 1.788430 9.794410 -6.758340 10.570200 0.013539 -2.714870 64.321298 -16.364201 6.286820 -75.096004 36.927602 121.801998 -16.767500 14.716800 -38.275700 51.356899 -41.937901 22.263099 27.950002 83.409601 -23.472201 -9.418430 19.867700 2.122120 -0.000000 -0.000006 0.000000
19.807700 81.734198 37.798600 21.282000 12.430000 100.554004 -66.420502 -49.461798 -35.559700 38.075900 65.442399 -68.446699 8.897240 -10.966501 0.066839 0.092411 0.001362 1.325290 -2.478640 25.549499 -18.434699 2.202510 1.397490 -10.482900 -7.250380 2.363160 -5.505230 -0.000000 0.000000 -0.000000 -48.251701 -56.231400 -74.916903 -42.616501 -54.589700 -61.368300 5.380320 9.478481 -6.078870 10.059500 -0.072490 -3.398090 61.165799 -19.251199 2.807000 -76.677104 32.889198 129.738992 -12.042000 13.922700 -44.138301 49.306401 -41.776900 20.553600 27.666400 84.503100 -24.039600 -6.485500 22.238500 1.538230 -0.000000 -0.000006 0.000000
20.037200 81.029605 38.502998 22.627500 14.373300 99.905901 -66.605696 -49.200598 -34.760400 40.747399 68.340100 -71.102201 8.558720 -10.831900 0.047547 0.092411 0.001345 1.325290 -2.134850 23.587601 -18.702999 1.675390 0.582434 -8.307259 -7.140720 2.727650 -5.108000 -0.000000 0.000000 -0.000000 -47.382402 -53.603803 -68.916295 -46.574001 -53.012797 -65.111394 10.320300 9.138980 -4.814130 9.429230 -0.155394 -4.124590 58.297796 -21.956700 -0.339252 -77.276706 27.909099 137.341990 -5.695260 11.991101 -50.721101 47.509700 -41.470402 19.570500 23.093100 85.019995 -18.880799 -3.139850 23.992800 0.704959 -0.000000 -0.000006 0.000000
20.225501 80.563496 39.281201 23.860701 16.149000 99.280297 -66.697603 -49.317200 -33.702701 42.676398 70.682097 -73.081597 8.120410 -10.440300 0.009559 0.092411 0.001327 1.325290 -1.789140 21.698000 -18.846599 1.371080 -0.192008 -6.527520 -7.185050 3.027810 -4.888850 -0.000000 0.000000 -0.000000 -46.851502 -52.589100 -63.359499 -46.732899 -48.586301 -64.943699 14.721300 8.987130 -3.183200 8.821160 -0.210257 -4.681330 55.128502 -24.535901 -3.278810 -77.520899 24.602200 143.716005 -1.131510 10.090100 -55.614498 45.612700 -41.019698 18.917700 12.183400 85.051694 -6.256380 0.224507 23.192899 -0.215509 -0.000000 -0.000006 0.000000
20.402701 80.268000 40.116300 24.745599 17.641701 98.801801 -66.790494 -49.712002 -33.064799 43.478297 72.584099 -73.915494 7.906250 -10.353100 -0.001262 0.092411 0.001310 1.325290 -1.429720 20.272000 -18.918000 1.334280 -0.737306 -5.591240 -7.491580 3.154720 -5.093960 -0.000000 0.000000 -0.000000 -43.012000 -51.896901 -55.795102 -44.453900 -43.162701 -62.873401 18.870600 8.921010 -1.871000 8.713260 -0.257142 -5.094450 50.097699 -26.606800 -6.693430 -77.302100 24.663200 147.744997 -6.474260 12.340300 -51.098899 43.841202 -40.874000 19.010901 0.582250 84.572502 8.116820 2.766460 20.630699 -0.820229 -0.000000 -0.000006 0.000000
20.630800 79.972395 40.904497 25.300899 18.916999 98.530902 -67.034898 -50.290601 -33.105500 42.930901 74.221200 -73.169406 7.454200 -10.575400 0.001171 0.092411 0.001292 1.325290 -1.002750 19.694200 -18.548700 1.229650 -1.039900 -4.734190 -7.984000 3.002010 -5.707940 -0.000000 0.000000 -0.000000 -36.594600 -50.704497 -47.035500 -41.776698 -36.999801 -59.952402 22.131901 8.822930 -1.437250 8.921190 -0.287701 -5.295070 43.184602 -27.675501 -11.494700 -78.370301 24.745599 149.835007 -18.646601 15.585699 -40.076302 42.070301 -41.318802 19.594500 -7.824700 83.909400 19.413800 4.155440 16.498100 -0.987266 -0.000000 -0.000006 0.000000
